<svg width="395" height="459" viewBox="0 0 395 459" fill="none" xmlns="http://www.w3.org/2000/svg">
<path d="M197.5 388.644C297.259 388.644 378.131 376.44 378.131 361.385C378.131 346.33 297.259 334.125 197.5 334.125C97.7403 334.125 16.8691 346.33 16.8691 361.385C16.8691 376.44 97.7403 388.644 197.5 388.644Z" fill="#004466"/>
<path d="M174.662 234.692C162.724 234.692 153.121 244.298 153.121 256.24V337.76C153.121 349.702 162.724 359.308 174.662 359.308C186.6 359.308 196.203 349.702 196.203 337.76V256.5C196.203 244.558 186.6 234.692 174.662 234.692Z" fill="#69B945"/>
<path d="M153.122 81C129.505 81 110.04 100.471 110.04 124.096V257.019C110.04 280.644 129.505 300.115 153.122 300.115C176.738 300.115 196.203 280.644 196.203 257.019V124.356C196.203 100.471 176.998 81 153.122 81Z" fill="#8BC566"/>
<path d="M131.321 234.692C119.383 234.692 109.78 244.298 109.78 256.24V337.76C109.78 349.702 119.383 359.308 131.321 359.308C143.259 359.308 152.862 349.702 152.862 337.76V256.5C153.121 244.558 143.259 234.692 131.321 234.692Z" fill="#8BC566"/>
<path d="M131.581 70.3558C119.643 70.3558 110.04 79.9615 110.04 91.9039V148.5C110.04 160.442 119.643 170.048 131.581 170.048C143.519 170.048 153.122 160.442 153.122 148.5V91.9039C153.122 79.9615 143.519 70.3558 131.581 70.3558Z" fill="#8BC566"/>
<path d="M174.662 70.3558C162.724 70.3558 153.121 79.9615 153.121 91.9039V148.5C153.121 160.442 162.724 170.048 174.662 170.048C186.6 170.048 196.203 160.442 196.203 148.5V91.9039C196.203 79.9615 186.6 70.3558 174.662 70.3558Z" fill="#8BC566"/>
<path d="M166.616 106.442C173.104 106.442 178.295 111.635 178.295 118.125V131.106C178.295 137.596 173.104 142.788 166.616 142.788C160.128 142.788 154.938 137.596 154.938 131.106V118.125C154.938 111.635 160.128 106.442 166.616 106.442Z" fill="#EFEEEE"/>
<path d="M143.259 106.442C149.747 106.442 154.938 111.635 154.938 118.125V131.106C154.938 137.596 149.747 142.788 143.259 142.788C136.771 142.788 131.58 137.596 131.58 131.106V118.125C131.321 111.635 136.771 106.442 143.259 106.442Z" fill="#EFEEEE"/>
<path d="M143.259 115.269C146.633 115.269 149.488 118.125 149.488 121.5V127.99C149.488 131.365 146.633 134.221 143.259 134.221C139.885 134.221 137.03 131.365 137.03 127.99V121.5C137.03 117.865 139.885 115.269 143.259 115.269Z" fill="#69B945"/>
<path d="M166.616 115.269C169.99 115.269 172.845 118.125 172.845 121.5V127.99C172.845 131.365 169.99 134.221 166.616 134.221C163.242 134.221 160.388 131.365 160.388 127.99V121.5C160.388 117.865 163.242 115.269 166.616 115.269Z" fill="#69B945"/>
<path d="M181.929 77.625C181.929 77.625 189.715 81.2596 190.493 89.0481" stroke="#EFEEEE" stroke-width="1.2945" stroke-miterlimit="10" stroke-linecap="round"/>
<path d="M116.009 265.067V217.817" stroke="#EFEEEE" stroke-width="1.2945" stroke-miterlimit="10" stroke-linecap="round"/>
<path d="M168.693 160.183H131.84C128.466 160.183 125.871 157.587 125.871 154.212C125.871 150.837 128.466 148.24 131.84 148.24H168.693C172.067 148.24 174.662 150.837 174.662 154.212C174.662 157.327 172.067 160.183 168.693 160.183Z" stroke="#EFEEEE" stroke-width="1.2945" stroke-miterlimit="10" stroke-linecap="round"/>
<path d="M67.2177 264.288C78.8964 264.288 88.4989 273.894 88.4989 285.577V340.096C88.4989 351.779 78.8964 361.385 67.2177 361.385C55.539 361.385 45.9365 351.779 45.9365 340.096V285.837C45.9365 273.894 55.539 264.288 67.2177 264.288Z" fill="#3CBEB7"/>
<path d="M88.7585 188.221C112.375 188.221 131.58 207.433 131.58 231.058V297.519C131.58 321.144 112.375 340.356 88.7585 340.356C65.1415 340.356 45.9365 321.144 45.9365 297.519V230.798C45.9365 207.433 65.1415 188.221 88.7585 188.221Z" fill="#7FCAC8"/>
<path d="M109.78 268.702C121.459 268.702 131.061 278.308 131.061 289.99V340.096C131.061 351.779 121.459 361.385 109.78 361.385C98.1015 361.385 88.499 351.779 88.499 340.096V289.99C88.499 278.308 98.1015 268.702 109.78 268.702Z" fill="#7FCAC8"/>
<path d="M68.7754 219.894C62.2872 219.894 57.0967 225.087 57.0967 231.577V244.558C57.0967 251.048 62.2872 256.24 68.7754 256.24C75.2636 256.24 80.4541 251.048 80.4541 244.558V231.577C80.4541 225.346 75.004 219.894 68.7754 219.894Z" fill="#EFEEEE"/>
<path d="M91.8731 219.894C85.3849 219.894 80.1943 225.087 80.1943 231.577V244.558C80.1943 251.048 85.3849 256.24 91.8731 256.24C98.3612 256.24 103.552 251.048 103.552 244.558V231.577C103.552 225.346 98.3612 219.894 91.8731 219.894Z" fill="#EFEEEE"/>
<path d="M86.423 228.721C83.0491 228.721 80.1943 231.577 80.1943 234.952V241.442C80.1943 244.817 83.0491 247.673 86.423 247.673C89.7968 247.673 92.6516 244.817 92.6516 241.442V234.952C92.6516 231.317 89.7968 228.721 86.423 228.721Z" fill="#3CBEB7"/>
<path d="M63.3253 228.721C59.9515 228.721 57.0967 231.577 57.0967 234.952V241.442C57.0967 244.817 59.9515 247.673 63.3253 247.673C66.6992 247.673 69.554 244.817 69.554 241.442V234.952C69.2944 231.317 66.6992 228.721 63.3253 228.721Z" fill="#3CBEB7"/>
<path d="M80.194 194.971C80.194 194.971 68.5153 198.346 59.6914 209.51" stroke="#EFEEEE" stroke-width="1.282" stroke-miterlimit="10" stroke-linecap="round"/>
<path d="M80.4537 254.163C80.4537 254.163 84.8656 274.413 75.2631 273.375C66.1797 272.337 69.294 258.058 80.4537 254.163Z" fill="#EFEEEE"/>
<path d="M116.269 297.779C113.674 297.779 111.078 297.26 107.704 295.962C90.0566 288.952 79.6755 271.298 79.1564 270.519C76.8207 266.625 78.1183 261.433 82.0112 259.096C85.9041 256.76 91.0947 258.058 93.4304 261.952C93.4304 261.952 101.735 275.452 113.933 280.385C115.49 280.904 116.269 280.904 116.269 280.904C118.345 279.865 120.421 270 119.643 260.394C119.383 255.721 122.757 251.827 127.428 251.567C132.1 251.308 135.993 254.683 136.252 259.356C136.512 263.769 137.55 286.096 126.131 294.404C124.055 296.221 120.681 297.779 116.269 297.779Z" fill="#C0E5E7"/>
<path d="M48.7915 269.481C47.2343 269.481 45.4176 268.962 44.12 267.923C42.0438 266.625 24.6555 253.904 24.915 235.99C25.1745 225.346 31.4032 215.74 43.6009 207.692C47.4938 205.096 52.6844 206.394 55.0201 210.029C57.6154 213.923 56.3177 219.115 52.6844 221.452C45.1581 226.644 41.5247 231.577 41.5247 236.25C41.2652 244.038 50.3486 252.087 53.7225 254.423C57.3559 257.019 58.394 262.212 55.7987 266.106C53.982 268.442 51.3867 269.481 48.7915 269.481Z" fill="#3CBEB7"/>
<path d="M257.191 262.731C253.558 262.731 250.444 260.394 249.405 256.76C248.108 252.346 250.703 247.933 254.856 246.635C265.496 243.519 271.984 238.587 274.061 232.615C277.175 223.01 269.389 210.548 266.275 206.394C263.42 202.76 264.198 197.827 267.572 194.971C271.206 192.115 276.137 192.635 278.992 196.269C279.77 197.048 295.861 217.558 289.632 237.548C285.999 249.231 275.877 257.538 259.527 262.471C258.748 262.731 257.97 262.731 257.191 262.731Z" fill="#F58021"/>
<path d="M253.298 245.077C241.619 245.077 232.276 254.423 232.276 266.106V345.548C232.276 357.231 241.619 366.577 253.298 366.577C264.977 366.577 274.32 357.231 274.32 345.548V266.106C274.32 254.683 264.977 245.077 253.298 245.077Z" fill="#F58021"/>
<path d="M232.537 116.308C209.439 116.308 190.493 135.26 190.493 158.365V273.894C190.493 297 209.439 315.952 232.537 315.952C255.634 315.952 274.58 297 274.58 273.894V158.365C274.58 135.26 255.634 116.308 232.537 116.308Z" fill="#F2923B"/>
<path d="M211.255 245.077C199.576 245.077 190.233 254.423 190.233 266.106V345.548C190.233 357.231 199.576 366.577 211.255 366.577C222.934 366.577 232.277 357.231 232.277 345.548V266.106C232.277 254.683 222.934 245.077 211.255 245.077Z" fill="#F2923B"/>
<path d="M245.513 183.808C251.742 183.808 256.932 189 256.932 195.231V207.952C256.932 214.183 251.742 219.375 245.513 219.375C239.284 219.375 234.094 214.183 234.094 207.952V195.231C234.094 189 239.284 183.808 245.513 183.808Z" fill="#EFEEEE"/>
<path d="M222.674 183.808C228.903 183.808 234.093 189 234.093 195.231V207.952C234.093 214.183 228.903 219.375 222.674 219.375C216.445 219.375 211.255 214.183 211.255 207.952V195.231C211.255 189 216.445 183.808 222.674 183.808Z" fill="#EFEEEE"/>
<path d="M228.124 192.115C231.498 192.115 234.094 194.971 234.094 198.087V204.577C234.094 207.952 231.239 210.548 228.124 210.548C224.751 210.548 222.155 207.692 222.155 204.577V198.087C222.155 194.971 224.751 192.115 228.124 192.115Z" fill="#F58021"/>
<path d="M250.962 192.115C254.336 192.115 256.931 194.971 256.931 198.087V204.577C256.931 207.952 254.077 210.548 250.962 210.548C247.588 210.548 244.993 207.692 244.993 204.577V198.087C244.993 194.971 247.588 192.115 250.962 192.115Z" fill="#F58021"/>
<path d="M195.683 240.404C189.195 240.404 177.516 238.846 169.471 229.24C159.349 217.038 159.349 196.269 169.99 168.231C171.547 164.077 176.219 161.74 180.371 163.298C184.523 164.856 186.859 169.529 185.302 173.683C177.257 195.49 176.219 211.587 182.188 218.856C187.378 225.346 198.019 223.788 198.278 223.788C202.69 223.01 206.843 226.125 207.621 230.538C208.4 234.952 205.286 239.106 200.874 239.885C200.355 239.885 198.538 240.404 195.683 240.404Z" fill="#F2923B"/>
<path d="M257.191 262.731C253.558 262.731 250.444 260.394 249.405 256.76C248.108 252.346 250.703 247.933 254.856 246.635C274.58 240.663 274.58 231.058 274.58 227.942C274.58 223.529 278.213 219.894 282.884 219.894C287.296 219.894 290.93 223.529 290.93 228.202C290.93 239.625 285.22 254.683 259.267 262.471C258.748 262.731 257.97 262.731 257.191 262.731Z" fill="#F58021"/>
<path d="M241.619 234.692H226.826C225.269 234.692 223.972 233.394 223.972 231.837V226.385C223.972 224.827 225.269 223.529 226.826 223.529H241.619C243.177 223.529 244.474 224.827 244.474 226.385V231.837C244.474 233.654 243.177 234.692 241.619 234.692ZM227.346 231.577H241.1V227.163H227.346V231.577Z" fill="#EFEEEE"/>
<path d="M198.019 150.837H197.76C196.981 150.577 196.203 149.798 196.462 149.019C199.836 132.404 215.927 125.394 216.446 125.135C217.224 124.875 218.262 125.135 218.522 125.913C218.781 126.692 218.522 127.731 217.743 127.99C217.484 127.99 202.691 134.74 199.576 149.538C199.317 150.317 198.798 150.837 198.019 150.837Z" fill="#EFEEEE"/>
<path d="M258.748 171.865L253.298 180.433L258.748 188.74L264.198 180.433L258.748 171.865Z" fill="#EFEEEE"/>
<path d="M306.761 262.471C318.085 262.471 327.264 253.289 327.264 241.962C327.264 230.634 318.085 221.452 306.761 221.452C295.438 221.452 286.259 230.634 286.259 241.962C286.259 253.289 295.438 262.471 306.761 262.471Z" fill="#FFD16D"/>
<path d="M328.821 273.635C316.623 273.635 306.761 283.5 306.761 295.702V347.625C306.761 359.827 316.623 369.692 328.821 369.692C341.018 369.692 350.88 359.827 350.88 347.625V295.702C350.88 283.5 341.018 273.635 328.821 273.635Z" fill="#FDB82E"/>
<path d="M284.442 273.635C272.244 273.635 262.382 283.5 262.382 295.702V347.625C262.382 359.827 272.244 369.692 284.442 369.692C296.639 369.692 306.501 359.827 306.501 347.625V295.702C306.761 283.5 296.639 273.635 284.442 273.635Z" fill="#FFD16D"/>
<path d="M306.761 236.769C282.365 236.769 262.382 256.76 262.382 281.163V295.183C262.382 319.587 282.365 339.577 306.761 339.577C331.156 339.577 351.14 319.587 351.14 295.183V281.163C350.881 256.76 331.156 236.769 306.761 236.769Z" fill="#FFD16D"/>
<path d="M285.22 304.529C278.473 304.529 273.022 299.077 273.022 292.327V279.086C273.022 272.336 278.473 266.885 285.22 266.885C291.968 266.885 297.418 272.336 297.418 279.086V292.327C297.158 299.077 291.708 304.529 285.22 304.529Z" fill="#EFEEEE"/>
<path d="M309.356 304.529C302.608 304.529 297.158 299.077 297.158 292.327V279.086C297.158 272.336 302.608 266.885 309.356 266.885C316.104 266.885 321.554 272.336 321.554 279.086V292.327C321.294 299.077 315.844 304.529 309.356 304.529Z" fill="#EFEEEE"/>
<path d="M303.646 295.442C300.013 295.442 297.158 292.587 297.158 288.952V282.202C297.158 278.567 300.013 275.711 303.646 275.711C307.28 275.711 310.135 278.567 310.135 282.202V288.952C309.875 292.587 307.02 295.442 303.646 295.442Z" fill="#FDB82E"/>
<path d="M279.511 295.442C275.877 295.442 273.022 292.587 273.022 288.952V282.202C273.022 278.567 275.877 275.711 279.511 275.711C283.144 275.711 285.999 278.567 285.999 282.202V288.952C285.739 292.587 282.884 295.442 279.511 295.442Z" fill="#FDB82E"/>
<path d="M264.718 317.25C263.939 317.25 262.901 316.99 262.122 316.731C250.703 313.096 242.398 305.827 238.505 295.962C228.903 272.856 243.956 242.74 245.772 239.365C247.848 235.212 253.298 233.394 257.451 235.731C261.603 237.808 263.42 243.26 261.084 247.413C257.451 254.683 248.887 276.231 254.596 289.731C256.672 294.923 261.084 298.558 267.572 300.635C271.984 302.192 274.58 306.865 273.023 311.538C271.725 314.913 268.351 317.25 264.718 317.25Z" fill="#FFD16D"/>
<path d="M348.545 317.25C344.911 317.25 341.538 314.913 340.24 311.279C338.683 306.865 341.278 301.933 345.69 300.375C352.178 298.298 356.59 294.663 358.666 289.471C364.116 275.971 355.811 254.423 352.178 247.413C350.102 243.26 351.659 238.067 355.811 235.731C359.964 233.654 365.154 235.212 367.49 239.365C369.307 242.74 384.1 272.856 374.757 295.962C370.604 305.827 362.559 313.096 351.14 316.731C350.361 316.99 349.583 317.25 348.545 317.25Z" fill="#FDB82E"/>
<path d="M297.159 344.769C293.266 344.769 290.151 341.654 290.151 337.76V313.615C290.151 309.721 293.266 306.606 297.159 306.606C301.051 306.606 304.166 309.721 304.166 313.615V337.76C304.166 341.394 301.051 344.769 297.159 344.769ZM297.159 309.721C295.082 309.721 293.525 311.279 293.525 313.356V337.5C293.525 339.577 295.082 341.135 297.159 341.135C299.235 341.135 300.792 339.577 300.792 337.5V313.356C300.792 311.538 299.235 309.721 297.159 309.721Z" fill="#EFEEEE"/>
<path d="M321.554 238.587C320.775 238.587 320.256 238.067 319.997 237.548C317.401 229.76 310.135 229.24 309.875 229.24C308.837 229.24 308.058 228.462 308.318 227.423C308.318 226.385 309.096 225.865 310.135 225.865C310.654 225.865 319.997 226.385 323.37 236.51C323.63 237.288 323.111 238.327 322.332 238.587C322.073 238.587 321.813 238.587 321.554 238.587Z" fill="#EFEEEE"/>
</svg>
