<svg width="9" height="7" viewBox="0 0 9 7" fill="none" xmlns="http://www.w3.org/2000/svg">
<path d="M0.262346 0.822529C0.218806 0.871805 0.184265 0.930324 0.160698 0.994742C0.137131 1.05916 0.125 1.12821 0.125 1.19795C0.125 1.26768 0.137131 1.33673 0.160698 1.40115C0.184265 1.46557 0.218806 1.52409 0.262346 1.57336L4.1686 6.00045C4.21207 6.04979 4.26371 6.08894 4.32055 6.11565C4.37739 6.14236 4.43831 6.15611 4.49985 6.15611C4.56138 6.15611 4.6223 6.14236 4.67914 6.11565C4.73598 6.08894 4.78762 6.04979 4.8311 6.00045L8.73735 1.57336C8.78085 1.52406 8.81535 1.46553 8.83889 1.40112C8.86244 1.33671 8.87455 1.26767 8.87455 1.19795C8.87455 1.12822 8.86244 1.05919 8.83889 0.994772C8.81535 0.930358 8.78085 0.87183 8.73735 0.822529C8.69385 0.773229 8.6422 0.734122 8.58537 0.70744C8.52853 0.680759 8.46761 0.667026 8.4061 0.667026C8.34458 0.667026 8.28366 0.680759 8.22682 0.70744C8.16999 0.734122 8.11835 0.773229 8.07484 0.822529L4.49985 4.87349L0.924847 0.822529C0.881368 0.773184 0.829733 0.734036 0.772894 0.707327C0.716055 0.680617 0.655128 0.66687 0.593596 0.66687C0.532065 0.66687 0.471138 0.680617 0.414299 0.707327C0.35746 0.734036 0.305824 0.773184 0.262346 0.822529Z" fill="#229EEB"/>
</svg>
